<svg xmlns="http://www.w3.org/2000/svg" xmlns:v="https://svgstorm.com"
viewBox = "0 0 500 500"
width="500"
height="500">
<g fill="None" fill-opacity="0.0" stroke="#000000" stroke-opacity="0.00" stroke-width="0.3"><path d="
M 0.00 500.00 
L 500.00 500.00
L 500.00 0.00
L 0.00 0.00
L 0.00 500.00
M 389.00 197.00 
C 389.30 197.22 390.06 197.71 390.00 198.00
C 389.19 201.84 377.45 212.31 374.00 214.00
C 373.60 214.20 373.00 214.00 373.00 214.00
C 372.36 215.52 372.10 215.70 371.00 217.00
C 367.93 220.62 364.38 223.81 361.00 227.00
C 358.46 229.81 355.44 233.53 352.00 235.00
C 341.40 239.52 327.02 234.63 315.00 236.00 C 302.98 237.37 289.42 235.41 277.00 236.00 C 264.58 236.59 251.65 235.79 239.00 236.00 C 226.35 236.21 212.74 236.00 200.00 236.00
C 193.49 236.00 187.22 236.84 181.00 237.00
C 180.50 237.01 179.46 236.86 179.00 237.00
C 174.97 238.21 170.21 239.20 166.00 241.00
C 164.37 241.70 162.54 242.28 161.00 243.00
C 160.19 243.38 160.27 243.88 159.00 244.00
C 156.68 245.65 154.38 248.18 152.00 250.00
C 151.68 250.24 151.00 250.00 151.00 250.00
C 147.97 256.77 137.64 263.21 132.25 269.25 C 126.86 275.29 119.53 283.27 113.25 288.25 C 106.96 293.22 101.41 304.45 94.00 307.00
C 93.55 307.15 92.50 307.00 92.00 307.00
C 85.23 309.88 70.67 308.53 63.00 308.00 C 55.33 307.47 39.79 311.28 34.00 307.00
C 33.50 307.00 33.00 307.00 33.00 307.00
C 32.12 306.92 31.91 305.69 32.00 305.00
C 32.65 300.18 41.13 296.99 43.75 292.75 C 46.37 288.51 52.48 284.88 55.75 280.75 C 59.02 276.62 64.31 272.65 68.00 269.00
C 79.57 255.59 93.28 241.87 107.00 230.00
C 107.27 229.76 107.81 229.32 108.00 229.00
C 110.58 224.67 117.33 218.84 122.00 216.00
C 122.67 215.59 123.32 215.35 124.00 215.00
C 126.51 213.00 128.76 210.17 132.00 209.00
C 132.44 208.84 133.00 209.00 133.00 209.00
C 134.89 205.98 140.63 203.79 144.00 203.00
C 144.47 202.89 145.00 203.00 145.00 203.00
C 145.26 202.88 145.65 202.03 146.00 202.00
C 146.50 201.95 147.00 202.00 147.00 202.00
C 157.89 197.25 171.51 197.00 184.00 197.00
C 184.50 197.00 185.00 197.00 185.00 197.00
C 187.05 195.48 190.27 196.00 193.00 196.00
C 194.00 196.00 195.00 196.00 196.00 196.00
C 206.67 196.00 217.33 196.00 228.00 196.00
C 253.00 196.00 278.00 196.00 303.00 196.00
C 314.33 196.00 325.67 196.00 337.00 196.00
C 342.00 196.00 347.00 196.00 352.00 196.00
C 359.33 196.00 366.67 196.00 374.00 196.00
C 378.20 196.00 385.84 194.67 389.00 197.00
M 468.00 197.00 
C 470.13 199.05 463.09 204.71 461.00 206.00
C 460.68 206.20 460.23 206.72 460.00 207.00
C 454.66 213.39 446.78 219.22 441.00 225.00
C 439.73 226.61 438.69 228.37 437.00 230.00
C 428.69 237.99 419.90 247.36 411.25 255.25 C 402.59 263.14 395.46 273.15 385.25 281.25 C 375.03 289.35 370.32 301.46 359.00 307.00
C 358.60 307.20 358.00 307.00 358.00 307.00
C 353.51 310.32 344.00 307.58 338.00 308.00 C 332.00 308.42 322.05 308.56 316.00 308.00 C 309.95 307.44 299.59 310.38 295.00 307.00
C 294.70 306.78 294.03 306.35 294.00 306.00
C 293.95 305.50 294.00 305.00 294.00 305.00
C 299.31 294.15 313.14 287.28 320.75 277.75 C 328.36 268.22 339.17 259.62 347.75 250.75 C 356.34 241.88 365.47 231.88 374.75 223.75 C 384.04 215.62 391.56 203.35 402.00 197.00
C 402.66 196.60 403.24 196.16 404.00 196.00
C 415.48 193.56 430.23 196.00 442.00 196.00
C 446.33 196.00 450.67 196.00 455.00 196.00
C 457.64 196.00 460.37 195.81 463.00 196.00
C 464.48 196.11 466.91 195.68 468.00 197.00
M 336.00 244.00 
C 337.29 244.00 339.83 243.50 341.00 244.00
C 343.56 245.09 335.92 251.28 334.25 253.25 C 332.58 255.22 327.01 259.99 325.00 262.00
C 319.15 267.85 311.69 279.79 304.00 283.00
C 301.76 283.30 299.26 283.00 297.00 283.00
C 291.67 283.00 286.33 283.00 281.00 283.00
C 256.33 283.00 231.67 283.00 207.00 283.00
C 206.50 283.00 206.00 283.00 206.00 283.00
C 203.62 284.76 199.15 284.00 196.00 284.00
C 195.50 284.00 194.48 283.90 194.00 284.00
C 192.67 284.28 191.24 285.43 190.00 286.00
C 189.02 286.45 187.90 286.58 187.00 287.00
C 183.65 289.11 181.23 293.15 178.00 295.00
C 177.78 295.12 178.00 296.00 178.00 296.00
C 176.35 299.38 170.32 305.37 167.00 307.00
C 166.60 307.20 166.00 307.00 166.00 307.00
C 161.02 310.69 145.62 308.12 139.00 308.00 C 132.38 307.88 116.07 310.76 111.00 307.00
C 110.50 307.00 110.00 307.00 110.00 307.00
C 107.05 304.16 117.91 296.96 120.70 293.70 C 123.49 290.44 130.08 284.01 133.77 279.77 C 137.45 275.53 143.55 271.16 147.10 267.10 C 150.65 263.04 156.08 257.49 161.00 254.00
C 162.32 253.06 163.81 252.74 165.00 252.00
C 171.99 247.66 178.10 245.00 187.00 245.00
C 187.50 245.00 188.00 245.00 188.00 245.00
C 190.70 243.00 196.45 244.00 200.00 244.00
C 206.00 244.00 212.00 244.00 218.00 244.00
C 236.75 242.19 257.50 242.94 277.00 243.00 C 296.50 243.06 317.34 242.02 336.00 244.00
M 415.00 288.00 
C 416.34 292.47 412.16 292.26 409.00 292.00
C 407.86 296.59 411.41 304.81 407.00 307.00
C 402.46 309.62 404.00 295.15 404.00 292.00
C 402.14 292.50 399.90 291.62 398.00 292.00
C 397.05 283.62 410.65 287.21 415.00 288.00
M 421.00 288.00 
C 424.60 289.74 424.90 295.09 426.00 299.00
C 427.73 296.16 428.87 292.35 430.00 289.00
C 438.09 279.62 439.29 303.75 436.00 307.00
C 431.31 311.63 432.41 299.94 431.00 299.00
C 432.78 305.29 422.50 311.03 423.00 302.00
C 422.47 301.34 421.89 300.38 421.00 300.00
C 420.48 302.20 422.14 305.62 420.00 307.00
C 419.11 307.81 417.92 307.84 417.00 307.00
C 415.01 305.19 416.00 299.71 416.00 297.00
C 416.00 296.50 416.00 296.00 416.00 296.00
C 416.00 291.54 415.15 285.17 421.00 288.00 Z"/>
</g>
<g fill="None" fill-opacity="0.0" stroke="#FFB7B6" stroke-opacity="0.02" stroke-width="0.3"><path d="
M 185.00 197.00 
C 187.99 197.00 190.68 196.51 193.00 196.00
C 190.27 196.00 187.05 195.48 185.00 197.00 Z"/>
</g>
<g fill="None" fill-opacity="0.0" stroke="#B40C0A" stroke-opacity="0.74" stroke-width="0.3"><path d="
M 185.00 197.00 
C 185.00 197.00 184.50 197.00 184.00 197.00
C 250.37 203.42 319.78 194.27 387.00 198.00
C 376.99 209.50 364.96 219.55 355.00 231.00
C 360.63 225.15 367.31 219.69 373.00 214.00
C 378.12 208.88 383.18 201.12 389.00 197.00
C 384.00 197.00 379.00 197.00 374.00 197.00
C 366.67 197.00 359.33 197.00 352.00 197.00
C 347.00 197.00 342.00 197.00 337.00 197.00
C 325.67 197.00 314.33 197.00 303.00 197.00
C 278.00 197.00 253.00 197.00 228.00 197.00
C 217.60 197.00 205.54 198.09 196.00 196.00
C 195.00 196.00 194.00 196.00 193.00 196.00
C 190.68 196.51 187.99 197.00 185.00 197.00 Z"/>
</g>
<g fill="None" fill-opacity="0.0" stroke="#FFBFBF" stroke-opacity="0.02" stroke-width="0.3"><path d="
M 228.00 197.00 
C 227.96 197.00 228.00 196.00 228.00 196.00
C 217.33 196.00 206.67 196.00 196.00 196.00
C 205.54 198.09 217.60 197.00 228.00 197.00 Z"/>
</g>
<g fill="None" fill-opacity="0.0" stroke="#FF55AA" stroke-opacity="0.01" stroke-width="0.3"><path d="
M 228.00 197.00 
C 253.00 197.00 278.00 197.00 303.00 197.00
C 302.96 197.00 303.00 196.00 303.00 196.00
C 278.00 196.00 253.00 196.00 228.00 196.00
C 228.00 196.00 227.96 197.00 228.00 197.00 Z"/>
</g>
<g fill="None" fill-opacity="0.0" stroke="#FE5555" stroke-opacity="0.01" stroke-width="0.3"><path d="
M 303.00 197.00 
C 314.33 197.00 325.67 197.00 337.00 197.00
C 336.96 197.00 337.00 196.00 337.00 196.00
C 325.67 196.00 314.33 196.00 303.00 196.00
C 303.00 196.00 302.96 197.00 303.00 197.00 Z"/>
</g>
<g fill="None" fill-opacity="0.0" stroke="#FE55A4" stroke-opacity="0.01" stroke-width="0.3"><path d="
M 337.00 197.00 
C 342.00 197.00 347.00 197.00 352.00 197.00
C 351.96 197.00 352.00 196.00 352.00 196.00
C 347.00 196.00 342.00 196.00 337.00 196.00
C 337.00 196.00 336.96 197.00 337.00 197.00 Z"/>
</g>
<g fill="None" fill-opacity="0.0" stroke="#FFCFB3" stroke-opacity="0.01" stroke-width="0.3"><path d="
M 352.00 197.00 
C 359.33 197.00 366.67 197.00 374.00 197.00
C 373.96 197.00 374.00 196.00 374.00 196.00
C 366.67 196.00 359.33 196.00 352.00 196.00
C 352.00 196.00 351.96 197.00 352.00 197.00 Z"/>
</g>
<g fill="None" fill-opacity="0.0" stroke="#FF928F" stroke-opacity="0.02" stroke-width="0.3"><path d="
M 374.00 197.00 
C 379.00 197.00 384.00 197.00 389.00 197.00
C 385.84 194.67 378.20 196.00 374.00 196.00
C 374.00 196.00 373.96 197.00 374.00 197.00 Z"/>
</g>
<g fill="None" fill-opacity="0.0" stroke="#B53E3E" stroke-opacity="0.22" stroke-width="0.3"><path d="
M 402.00 197.00 
C 383.63 214.14 367.38 234.89 348.25 251.25 C 329.12 267.61 314.50 290.66 294.00 305.00
C 294.00 305.00 293.95 305.50 294.00 306.00
C 294.25 306.25 295.00 306.00 295.00 306.00
C 304.55 292.34 319.34 282.04 330.75 269.75 C 342.16 257.46 354.90 244.66 367.25 233.25 C 379.60 221.84 390.32 206.57 404.00 197.00
C 404.23 196.84 404.00 196.00 404.00 196.00
C 403.24 196.16 402.66 196.60 402.00 197.00 Z"/>
</g>
<g fill="None" fill-opacity="0.0" stroke="#FCADAD" stroke-opacity="0.02" stroke-width="0.3"><path d="
M 404.00 197.00 
C 416.43 198.12 429.51 197.00 442.00 197.00
C 441.96 197.00 442.00 196.00 442.00 196.00
C 430.23 196.00 415.48 193.56 404.00 196.00
C 404.00 196.00 404.23 196.84 404.00 197.00 Z"/>
</g>
<g fill="None" fill-opacity="0.0" stroke="#FEAA55" stroke-opacity="0.01" stroke-width="0.3"><path d="
M 442.00 197.00 
C 446.33 197.00 450.67 197.00 455.00 197.00
C 454.96 197.00 455.00 196.00 455.00 196.00
C 450.67 196.00 446.33 196.00 442.00 196.00
C 442.00 196.00 441.96 197.00 442.00 197.00 Z"/>
</g>
<g fill="None" fill-opacity="0.0" stroke="#FFB8B7" stroke-opacity="0.02" stroke-width="0.3"><path d="
M 455.00 197.00 
C 457.59 197.00 461.21 196.04 463.00 196.00
C 460.37 195.81 457.64 196.00 455.00 196.00
C 455.00 196.00 454.96 197.00 455.00 197.00 Z"/>
</g>
<g fill="None" fill-opacity="0.0" stroke="#B01A15" stroke-opacity="0.69" stroke-width="0.3"><path d="
M 455.00 197.00 
C 450.67 197.00 446.33 197.00 442.00 197.00
C 429.51 197.00 416.43 198.12 404.00 197.00
C 390.32 206.57 379.60 221.84 367.25 233.25 C 354.90 244.66 342.16 257.46 330.75 269.75 C 319.34 282.04 304.55 292.34 295.00 306.00
C 295.50 306.00 296.00 306.00 296.00 306.00
C 296.26 305.88 296.79 305.27 297.00 305.00
C 304.94 294.80 315.19 286.60 324.25 277.25 C 333.30 267.90 342.06 258.69 351.75 249.75 C 361.44 240.82 368.57 230.62 379.25 222.25 C 389.92 213.88 394.74 198.69 410.00 198.00 C 425.26 197.31 449.89 198.52 466.00 198.00
C 453.66 211.83 439.29 224.22 427.00 238.00
C 430.05 234.95 433.85 232.34 437.00 230.00
C 438.69 228.37 439.73 226.61 441.00 225.00
C 445.30 219.55 452.76 210.05 459.00 207.00
C 461.98 204.02 464.52 200.43 468.00 198.00
C 468.20 197.60 468.00 197.00 468.00 197.00
C 466.91 195.68 464.48 196.11 463.00 196.00
C 461.21 196.04 457.59 197.00 455.00 197.00 Z"/>
</g>
<g fill="None" fill-opacity="0.0" stroke="#E00603" stroke-opacity="0.99" stroke-width="0.3"><path d="
M 147.00 202.00 
C 148.00 202.03 149.73 201.58 150.00 203.00
C 144.01 203.14 137.90 209.11 133.00 209.00
C 133.00 209.00 132.44 208.84 132.00 209.00
C 131.02 210.32 130.27 211.05 129.00 212.00
C 124.29 216.62 118.69 220.31 114.00 225.00
C 100.83 238.17 86.83 251.45 74.25 265.25 C 61.66 279.04 44.63 290.79 34.00 306.00
C 48.50 305.99 65.78 304.35 80.00 306.00 C 94.22 307.65 100.49 297.83 109.25 289.25 C 118.01 280.67 123.64 273.81 132.25 266.25 C 140.86 258.69 146.87 248.62 157.00 244.00
C 158.46 243.33 158.33 244.06 159.00 244.00
C 160.27 243.88 160.19 243.38 161.00 243.00
C 161.63 241.85 161.08 242.30 163.23 240.23 C 165.39 238.16 167.40 240.94 166.00 241.00
C 170.21 239.20 174.97 238.21 179.00 237.00
C 178.00 236.97 176.27 237.42 176.00 236.00
C 178.79 234.99 181.89 234.82 185.00 235.00
C 185.99 235.03 187.00 235.00 188.00 235.00
C 200.37 232.36 213.51 233.20 227.00 233.00 C 240.49 232.80 255.51 233.72 269.00 233.00 C 282.49 232.28 296.75 234.78 310.00 233.00 C 323.25 231.22 339.36 236.91 352.00 233.00
C 352.90 232.55 354.31 231.64 355.00 231.00
C 364.96 219.55 376.99 209.50 387.00 198.00
C 319.78 194.27 250.37 203.42 184.00 197.00
C 171.51 197.00 157.89 197.25 147.00 202.00 Z"/>
</g>
<g fill="None" fill-opacity="0.0" stroke="#9B1815" stroke-opacity="0.35" stroke-width="0.3"><path d="
M 373.00 214.00 
C 373.00 214.00 373.60 214.20 374.00 214.00
C 378.26 207.91 385.86 203.84 390.00 198.00
C 390.06 197.71 389.30 197.22 389.00 197.00
C 383.18 201.12 378.12 208.88 373.00 214.00 Z"/>
</g>
<g fill="None" fill-opacity="0.0" stroke="#FFFEFD" stroke-opacity="0.01" stroke-width="0.3"><path d="
M 294.00 305.00 
C 314.50 290.66 329.12 267.61 348.25 251.25 C 367.38 234.89 383.63 214.14 402.00 197.00
C 391.56 203.35 384.04 215.62 374.75 223.75 C 365.47 231.88 356.34 241.88 347.75 250.75 C 339.17 259.62 328.36 268.22 320.75 277.75 C 313.14 287.28 299.31 294.15 294.00 305.00 Z"/>
</g>
<g fill="None" fill-opacity="0.0" stroke="#FFE5E4" stroke-opacity="0.01" stroke-width="0.3"><path d="
M 468.00 198.00 
C 466.54 200.98 463.00 203.44 461.00 206.00
C 463.09 204.71 470.13 199.05 468.00 197.00
C 468.00 197.00 468.20 197.60 468.00 198.00 Z"/>
</g>
<g fill="None" fill-opacity="0.0" stroke="#F9ABAA" stroke-opacity="0.04" stroke-width="0.3"><path d="
M 374.00 214.00 
C 377.45 212.31 389.19 201.84 390.00 198.00
C 385.86 203.84 378.26 207.91 374.00 214.00 Z"/>
</g>
<g fill="None" fill-opacity="0.0" stroke="#DF0401" stroke-opacity="1.00" stroke-width="0.3"><path d="
M 297.00 305.00 
C 316.99 302.12 339.70 306.32 359.00 306.00
C 361.76 304.07 363.89 301.47 366.00 299.00
C 384.52 277.32 406.91 258.09 427.00 238.00
C 439.29 224.22 453.66 211.83 466.00 198.00
C 449.89 198.52 425.26 197.31 410.00 198.00 C 394.74 198.69 389.92 213.88 379.25 222.25 C 368.57 230.62 361.44 240.82 351.75 249.75 C 342.06 258.69 333.30 267.90 324.25 277.25 C 315.19 286.60 304.94 294.80 297.00 305.00 Z"/>
</g>
<g fill="None" fill-opacity="0.0" stroke="#A22C2B" stroke-opacity="0.20" stroke-width="0.3"><path d="
M 459.00 207.00 
C 459.40 206.80 460.00 207.00 460.00 207.00
C 460.23 206.72 460.68 206.20 461.00 206.00
C 463.00 203.44 466.54 200.98 468.00 198.00
C 464.52 200.43 461.98 204.02 459.00 207.00 Z"/>
</g>
<g fill="None" fill-opacity="0.0" stroke="#FFFFFF" stroke-opacity="0.01" stroke-width="0.3"><path d="
M 145.00 203.00 
C 145.35 202.97 145.74 202.12 146.00 202.00
C 145.65 202.03 145.26 202.88 145.00 203.00 Z"/>
</g>
<g fill="None" fill-opacity="0.0" stroke="#AE2826" stroke-opacity="0.45" stroke-width="0.3"><path d="
M 145.00 203.00 
C 145.00 203.00 144.47 202.89 144.00 203.00
C 140.84 205.54 136.67 206.99 133.00 209.00
C 137.90 209.11 144.01 203.14 150.00 203.00
C 149.73 201.58 148.00 202.03 147.00 202.00
C 147.00 202.00 146.50 201.95 146.00 202.00
C 145.74 202.12 145.35 202.97 145.00 203.00 Z"/>
</g>
<g fill="None" fill-opacity="0.0" stroke="#F6B9BB" stroke-opacity="0.05" stroke-width="0.3"><path d="
M 133.00 209.00 
C 136.67 206.99 140.84 205.54 144.00 203.00
C 140.63 203.79 134.89 205.98 133.00 209.00 Z"/>
</g>
<g fill="None" fill-opacity="0.0" stroke="#E79F9B" stroke-opacity="0.10" stroke-width="0.3"><path d="
M 441.00 225.00 
C 446.78 219.22 454.66 213.39 460.00 207.00
C 460.00 207.00 459.40 206.80 459.00 207.00
C 452.76 210.05 445.30 219.55 441.00 225.00 Z"/>
</g>
<g fill="None" fill-opacity="0.0" stroke="#EBA8A6" stroke-opacity="0.07" stroke-width="0.3"><path d="
M 124.00 215.00 
C 125.76 214.10 127.43 213.17 129.00 212.00
C 130.27 211.05 131.02 210.32 132.00 209.00
C 128.76 210.17 126.51 213.00 124.00 215.00 Z"/>
</g>
<g fill="None" fill-opacity="0.0" stroke="#AC2524" stroke-opacity="0.49" stroke-width="0.3"><path d="
M 124.00 215.00 
C 123.32 215.35 122.67 215.59 122.00 216.00
C 119.20 218.62 116.83 222.53 114.00 225.00
C 118.69 220.31 124.29 216.62 129.00 212.00
C 127.43 213.17 125.76 214.10 124.00 215.00 Z"/>
</g>
<g fill="None" fill-opacity="0.0" stroke="#D57974" stroke-opacity="0.14" stroke-width="0.3"><path d="
M 355.00 231.00 
C 354.25 231.78 352.86 234.65 352.00 235.00
C 355.44 233.53 358.46 229.81 361.00 227.00
C 364.16 223.51 367.69 220.22 371.00 217.00
C 372.10 215.70 372.36 215.52 373.00 214.00
C 367.31 219.69 360.63 225.15 355.00 231.00 Z"/>
</g>
<g fill="None" fill-opacity="0.0" stroke="#F6BFBC" stroke-opacity="0.06" stroke-width="0.3"><path d="
M 108.00 229.00 
C 109.82 227.39 112.20 226.57 114.00 225.00
C 116.83 222.53 119.20 218.62 122.00 216.00
C 117.33 218.84 110.58 224.67 108.00 229.00 Z"/>
</g>
<g fill="None" fill-opacity="0.0" stroke="#FFFFFF" stroke-opacity="0.01" stroke-width="0.3"><path d="
M 361.00 227.00 
C 364.38 223.81 367.93 220.62 371.00 217.00
C 367.69 220.22 364.16 223.51 361.00 227.00 Z"/>
</g>
<g fill="None" fill-opacity="0.0" stroke="#AE0D0B" stroke-opacity="0.72" stroke-width="0.3"><path d="
M 108.00 229.00 
C 107.81 229.32 107.27 229.76 107.00 230.00
C 102.22 240.18 89.69 246.68 82.75 255.75 C 75.82 264.82 64.46 271.58 57.75 280.75 C 51.04 289.93 37.94 295.89 33.00 306.00
C 33.25 305.75 34.00 306.00 34.00 306.00
C 44.63 290.79 61.66 279.04 74.25 265.25 C 86.83 251.45 100.83 238.17 114.00 225.00
C 112.20 226.57 109.82 227.39 108.00 229.00 Z"/>
</g>
<g fill="None" fill-opacity="0.0" stroke="#C5645E" stroke-opacity="0.17" stroke-width="0.3"><path d="
M 68.00 269.00 
C 64.48 273.08 59.76 277.22 56.25 281.25 C 52.74 285.28 47.01 288.94 44.25 293.25 C 41.48 297.55 33.47 300.67 32.00 305.00
C 31.91 305.69 32.12 306.92 33.00 307.00
C 32.75 306.75 33.00 306.00 33.00 306.00
C 37.94 295.89 51.04 289.93 57.75 280.75 C 64.46 271.58 75.82 264.82 82.75 255.75 C 89.69 246.68 102.22 240.18 107.00 230.00
C 93.28 241.87 79.57 255.59 68.00 269.00 Z"/>
</g>
<g fill="None" fill-opacity="0.0" stroke="#E08F8C" stroke-opacity="0.08" stroke-width="0.3"><path d="
M 427.00 238.00 
C 406.75 258.25 386.20 278.80 366.00 299.00
C 363.89 301.47 361.76 304.07 359.00 306.00
C 358.77 306.16 359.00 307.00 359.00 307.00
C 370.32 301.46 375.03 289.35 385.25 281.25 C 395.46 273.15 402.59 263.14 411.25 255.25 C 419.90 247.36 428.69 237.99 437.00 230.00
C 433.85 232.34 430.05 234.95 427.00 238.00 Z"/>
</g>
<g fill="None" fill-opacity="0.0" stroke="#901413" stroke-opacity="0.45" stroke-width="0.3"><path d="
M 352.00 233.00 
C 341.55 238.21 326.21 232.38 314.00 234.00 C 301.79 235.62 286.67 233.32 274.00 234.00 C 261.33 234.68 247.82 233.86 235.00 234.00 C 222.18 234.14 208.07 233.83 196.00 235.00
C 197.33 235.00 198.67 235.00 200.00 235.00
C 209.99 235.00 220.01 235.12 230.00 235.00 C 239.99 234.88 250.01 235.33 260.00 235.00 C 269.99 234.67 281.14 235.73 291.00 235.00 C 300.86 234.27 311.50 236.67 321.00 235.00 C 330.50 233.33 343.25 238.59 352.00 235.00
C 352.86 234.65 354.25 231.78 355.00 231.00
C 354.31 231.64 352.90 232.55 352.00 233.00 Z"/>
</g>
<g fill="None" fill-opacity="0.0" stroke="#BC0905" stroke-opacity="0.95" stroke-width="0.3"><path d="
M 188.00 235.00 
C 190.67 235.00 193.33 235.00 196.00 235.00
C 208.07 233.83 222.18 234.14 235.00 234.00 C 247.82 233.86 261.33 234.68 274.00 234.00 C 286.67 233.32 301.79 235.62 314.00 234.00 C 326.21 232.38 341.55 238.21 352.00 233.00
C 339.36 236.91 323.25 231.22 310.00 233.00 C 296.75 234.78 282.49 232.28 269.00 233.00 C 255.51 233.72 240.49 232.80 227.00 233.00 C 213.51 233.20 200.37 232.36 188.00 235.00 Z"/>
</g>
<g fill="None" fill-opacity="0.0" stroke="#A31917" stroke-opacity="0.51" stroke-width="0.3"><path d="
M 179.00 237.00 
C 179.46 236.86 180.50 237.01 181.00 237.00
C 181.84 236.78 184.21 235.14 185.00 235.00
C 181.89 234.82 178.79 234.99 176.00 236.00
C 176.27 237.42 178.00 236.97 179.00 237.00 Z"/>
</g>
<g fill="None" fill-opacity="0.0" stroke="#E67A7A" stroke-opacity="0.07" stroke-width="0.3"><path d="
M 181.00 237.00 
C 187.22 236.84 193.49 236.00 200.00 236.00
C 199.96 236.00 200.00 235.00 200.00 235.00
C 198.67 235.00 197.33 235.00 196.00 235.00
C 193.33 235.00 190.67 235.00 188.00 235.00
C 187.00 235.00 185.99 235.03 185.00 235.00
C 184.21 235.14 181.84 236.78 181.00 237.00 Z"/>
</g>
<g fill="None" fill-opacity="0.0" stroke="#FFFFFF" stroke-opacity="0.01" stroke-width="0.3"><path d="
M 200.00 236.00 
C 212.74 236.00 226.35 236.21 239.00 236.00 C 251.65 235.79 264.58 236.59 277.00 236.00 C 289.42 235.41 302.98 237.37 315.00 236.00 C 327.02 234.63 341.40 239.52 352.00 235.00
C 343.25 238.59 330.50 233.33 321.00 235.00 C 311.50 236.67 300.86 234.27 291.00 235.00 C 281.14 235.73 269.99 234.67 260.00 235.00 C 250.01 235.33 239.99 234.88 230.00 235.00 C 220.01 235.12 209.99 235.00 200.00 235.00
C 200.00 235.00 199.96 236.00 200.00 236.00 Z"/>
</g>
<g fill="None" fill-opacity="0.0" stroke="#A00D0E" stroke-opacity="0.54" stroke-width="0.3"><path d="
M 366.00 299.00 
C 386.20 278.80 406.75 258.25 427.00 238.00
C 406.91 258.09 384.52 277.32 366.00 299.00 Z"/>
</g>
<g fill="None" fill-opacity="0.0" stroke="#BB4A44" stroke-opacity="0.38" stroke-width="0.3"><path d="
M 161.00 243.00 
C 162.54 242.28 164.37 241.70 166.00 241.00
C 167.40 240.94 165.39 238.16 163.23 240.23 C 161.08 242.30 161.63 241.85 161.00 243.00 Z"/>
</g>
<g fill="None" fill-opacity="0.0" stroke="#DA7B76" stroke-opacity="0.18" stroke-width="0.3"><path d="
M 157.00 244.00 
C 155.32 245.14 153.15 248.35 152.00 250.00
C 154.38 248.18 156.68 245.65 159.00 244.00
C 158.33 244.06 158.46 243.33 157.00 244.00 Z"/>
</g>
<g fill="None" fill-opacity="0.0" stroke="#FFFFFF" stroke-opacity="0.00" stroke-width="0.3"><path d="
M 218.00 244.00 
C 257.33 244.00 296.67 244.00 336.00 244.00
C 317.34 242.02 296.50 243.06 277.00 243.00 C 257.50 242.94 236.75 242.19 218.00 244.00 Z"/>
</g>
<g fill="None" fill-opacity="0.0" stroke="#A51010" stroke-opacity="0.53" stroke-width="0.3"><path d="
M 34.00 306.00 
C 34.00 306.00 33.25 305.75 33.00 306.00
C 33.00 306.00 32.75 306.75 33.00 307.00
C 33.00 307.00 33.50 307.00 34.00 307.00
C 53.33 307.00 72.67 307.00 92.00 307.00
C 92.50 307.00 93.55 307.15 94.00 307.00
C 104.20 299.11 111.67 285.75 122.25 278.25 C 132.83 270.74 139.46 255.65 151.00 250.00
C 151.00 250.00 151.68 250.24 152.00 250.00
C 153.15 248.35 155.32 245.14 157.00 244.00
C 146.87 248.62 140.86 258.69 132.25 266.25 C 123.64 273.81 118.01 280.67 109.25 289.25 C 100.49 297.83 94.22 307.65 80.00 306.00 C 65.78 304.35 48.50 305.99 34.00 306.00 Z"/>
</g>
<g fill="None" fill-opacity="0.0" stroke="#FC9D98" stroke-opacity="0.10" stroke-width="0.3"><path d="
M 188.00 245.00 
C 192.00 245.00 196.00 245.00 200.00 245.00
C 199.85 244.95 200.00 244.00 200.00 244.00
C 196.45 244.00 190.70 243.00 188.00 245.00 Z"/>
</g>
<g fill="None" fill-opacity="0.0" stroke="#A6130F" stroke-opacity="0.35" stroke-width="0.3"><path d="
M 200.00 245.00 
C 201.67 245.00 203.33 245.00 205.00 245.00
C 250.00 245.00 295.00 245.00 340.00 245.00
C 339.70 246.25 338.17 246.71 338.00 248.00
C 339.10 246.83 341.55 246.20 341.00 244.00
C 339.83 243.50 337.29 244.00 336.00 244.00
C 296.67 244.00 257.33 244.00 218.00 244.00
C 212.00 244.00 206.00 244.00 200.00 244.00
C 200.00 244.00 199.85 244.95 200.00 245.00 Z"/>
</g>
<g fill="None" fill-opacity="0.0" stroke="#E79696" stroke-opacity="0.04" stroke-width="0.3"><path d="
M 338.00 248.00 
C 334.54 251.71 330.35 255.35 327.00 259.00
C 326.24 259.83 325.72 261.22 325.00 262.00
C 327.01 259.99 332.58 255.22 334.25 253.25 C 335.92 251.28 343.56 245.09 341.00 244.00
C 341.55 246.20 339.10 246.83 338.00 248.00 Z"/>
</g>
<g fill="None" fill-opacity="0.0" stroke="#DF0603" stroke-opacity="0.99" stroke-width="0.3"><path d="
M 165.00 252.00 
C 164.12 252.91 160.25 256.11 158.00 258.00
C 141.87 271.51 124.89 289.96 112.00 306.00
C 120.66 306.00 130.45 306.91 139.00 306.00 C 147.55 305.09 157.86 308.44 166.00 306.00
C 169.66 304.65 172.09 297.99 175.75 295.75 C 179.42 293.51 182.25 288.25 186.00 286.00
C 188.88 284.27 191.33 285.81 190.00 286.00
C 191.24 285.43 192.67 284.28 194.00 284.00
C 207.12 276.45 228.61 282.70 244.00 281.00 C 259.39 279.30 282.37 282.33 297.00 281.00 C 311.63 279.67 316.79 265.61 327.00 259.00
C 330.35 255.35 334.54 251.71 338.00 248.00
C 338.17 246.71 339.70 246.25 340.00 245.00
C 295.00 245.00 250.00 245.00 205.00 245.00
C 199.33 245.55 192.60 245.54 187.00 245.00
C 178.10 245.00 171.99 247.66 165.00 252.00
M 182.00 246.00 
C 177.25 250.29 174.73 245.87 182.00 246.00 Z"/>
</g>
<g fill="None" fill-opacity="0.0" stroke="#B20E0C" stroke-opacity="0.71" stroke-width="0.3"><path d="
M 205.00 245.00 
C 203.33 245.00 201.67 245.00 200.00 245.00
C 196.00 245.00 192.00 245.00 188.00 245.00
C 188.00 245.00 187.50 245.00 187.00 245.00
C 192.60 245.54 199.33 245.55 205.00 245.00 Z"/>
</g>
<g fill="None" fill-opacity="0.0" stroke="#AE1213" stroke-opacity="0.57" stroke-width="0.3"><path d="
M 182.00 246.00 
C 174.73 245.87 177.25 250.29 182.00 246.00 Z"/>
</g>
<g fill="None" fill-opacity="0.0" stroke="#E97C80" stroke-opacity="0.04" stroke-width="0.3"><path d="
M 94.00 307.00 
C 101.41 304.45 106.96 293.22 113.25 288.25 C 119.53 283.27 126.86 275.29 132.25 269.25 C 137.64 263.21 147.97 256.77 151.00 250.00
C 139.46 255.65 132.83 270.74 122.25 278.25 C 111.67 285.75 104.20 299.11 94.00 307.00 Z"/>
</g>
<g fill="None" fill-opacity="0.0" stroke="#BB3833" stroke-opacity="0.41" stroke-width="0.3"><path d="
M 161.00 254.00 
C 159.85 255.00 159.01 256.94 158.00 258.00
C 160.25 256.11 164.12 252.91 165.00 252.00
C 163.81 252.74 162.32 253.06 161.00 254.00 Z"/>
</g>
<g fill="None" fill-opacity="0.0" stroke="#E59D9B" stroke-opacity="0.09" stroke-width="0.3"><path d="
M 110.00 307.00 
C 109.75 306.75 110.00 306.00 110.00 306.00
C 114.74 296.31 127.12 290.35 133.75 281.75 C 140.38 273.16 150.54 265.76 158.00 258.00
C 159.01 256.94 159.85 255.00 161.00 254.00
C 156.08 257.49 150.65 263.04 147.10 267.10 C 143.55 271.16 137.45 275.53 133.77 279.77 C 130.08 284.01 123.49 290.44 120.70 293.70 C 117.91 296.96 107.05 304.16 110.00 307.00 Z"/>
</g>
<g fill="None" fill-opacity="0.0" stroke="#A90C0F" stroke-opacity="0.62" stroke-width="0.3"><path d="
M 110.00 306.00 
C 110.16 305.77 111.50 306.00 112.00 306.00
C 124.89 289.96 141.87 271.51 158.00 258.00
C 150.54 265.76 140.38 273.16 133.75 281.75 C 127.12 290.35 114.74 296.31 110.00 306.00 Z"/>
</g>
<g fill="None" fill-opacity="0.0" stroke="#B30D0C" stroke-opacity="0.75" stroke-width="0.3"><path d="
M 194.00 284.00 
C 194.48 283.90 195.50 284.00 196.00 284.00
C 198.91 282.76 202.46 283.00 206.00 283.00
C 206.00 283.00 206.50 283.00 207.00 283.00
C 212.70 278.78 223.61 283.32 231.00 282.00 C 238.39 280.68 248.17 282.77 256.00 282.00 C 263.83 281.23 273.86 282.31 281.00 283.00
C 286.33 283.00 291.67 283.00 297.00 283.00
C 298.83 282.82 301.43 281.53 304.00 282.00
C 312.95 278.36 317.71 262.85 327.00 259.00
C 316.79 265.61 311.63 279.67 297.00 281.00 C 282.37 282.33 259.39 279.30 244.00 281.00 C 228.61 282.70 207.12 276.45 194.00 284.00 Z"/>
</g>
<g fill="None" fill-opacity="0.0" stroke="#AB2726" stroke-opacity="0.33" stroke-width="0.3"><path d="
M 304.00 282.00 
C 311.31 276.89 319.03 268.51 325.00 262.00
C 325.72 261.22 326.24 259.83 327.00 259.00
C 317.71 262.85 312.95 278.36 304.00 282.00 Z"/>
</g>
<g fill="None" fill-opacity="0.0" stroke="#FFECE8" stroke-opacity="0.02" stroke-width="0.3"><path d="
M 304.00 282.00 
C 303.77 282.16 304.00 283.00 304.00 283.00
C 311.69 279.79 319.15 267.85 325.00 262.00
C 319.03 268.51 311.31 276.89 304.00 282.00 Z"/>
</g>
<g fill="None" fill-opacity="0.0" stroke="#FFE5E5" stroke-opacity="0.01" stroke-width="0.3"><path d="
M 32.00 305.00 
C 33.47 300.67 41.48 297.55 44.25 293.25 C 47.01 288.94 52.74 285.28 56.25 281.25 C 59.76 277.22 64.48 273.08 68.00 269.00
C 64.31 272.65 59.02 276.62 55.75 280.75 C 52.48 284.88 46.37 288.51 43.75 292.75 C 41.13 296.99 32.65 300.18 32.00 305.00 Z"/>
</g>
<g fill="None" fill-opacity="0.0" stroke="#CA6863" stroke-opacity="0.17" stroke-width="0.3"><path d="
M 207.00 283.00 
C 231.67 283.00 256.33 283.00 281.00 283.00
C 273.86 282.31 263.83 281.23 256.00 282.00 C 248.17 282.77 238.39 280.68 231.00 282.00 C 223.61 283.32 212.70 278.78 207.00 283.00 Z"/>
</g>
<g fill="None" fill-opacity="0.0" stroke="#CF6860" stroke-opacity="0.16" stroke-width="0.3"><path d="
M 297.00 283.00 
C 299.26 283.00 301.76 283.30 304.00 283.00
C 304.00 283.00 303.77 282.16 304.00 282.00
C 301.43 281.53 298.83 282.82 297.00 283.00 Z"/>
</g>
<g fill="None" fill-opacity="0.0" stroke="#FFCBCA" stroke-opacity="0.03" stroke-width="0.3"><path d="
M 196.00 284.00 
C 199.15 284.00 203.62 284.76 206.00 283.00
C 202.46 283.00 198.91 282.76 196.00 284.00 Z"/>
</g>
<g fill="None" fill-opacity="0.0" stroke="#B4413E" stroke-opacity="0.35" stroke-width="0.3"><path d="
M 186.00 286.00 
C 185.18 286.71 184.69 288.25 184.00 289.00
C 184.94 288.29 185.95 287.49 187.00 287.00
C 187.90 286.58 189.02 286.45 190.00 286.00
C 191.33 285.81 188.88 284.27 186.00 286.00 Z"/>
</g>
<g fill="None" fill-opacity="0.0" stroke="#A90709" stroke-opacity="0.77" stroke-width="0.3"><path d="
M 166.00 306.00 
C 169.67 304.90 175.32 297.68 178.00 295.00
C 180.03 292.97 181.71 290.74 184.00 289.00
C 184.69 288.25 185.18 286.71 186.00 286.00
C 182.25 288.25 179.42 293.51 175.75 295.75 C 172.09 297.99 169.66 304.65 166.00 306.00 Z"/>
</g>
<g fill="None" fill-opacity="0.0" stroke="#E8A4A1" stroke-opacity="0.09" stroke-width="0.3"><path d="
M 184.00 289.00 
C 181.71 290.74 180.03 292.97 178.00 295.00
C 181.23 293.15 183.65 289.11 187.00 287.00
C 185.95 287.49 184.94 288.29 184.00 289.00 Z"/>
</g>
<g fill="None" fill-opacity="0.0" stroke="#FAA3A6" stroke-opacity="0.04" stroke-width="0.3"><path d="
M 404.00 292.00 
C 404.00 291.50 404.00 291.00 404.00 291.00
C 402.38 291.29 400.63 290.78 399.00 291.00
C 399.11 290.00 398.53 288.27 400.00 288.00
C 402.65 286.47 410.85 288.00 414.00 288.00
C 414.50 288.00 415.00 288.00 415.00 288.00
C 410.65 287.21 397.05 283.62 398.00 292.00
C 399.90 291.62 402.14 292.50 404.00 292.00 Z"/>
</g>
<g fill="None" fill-opacity="0.0" stroke="#E48686" stroke-opacity="0.11" stroke-width="0.3"><path d="
M 416.00 296.00 
C 417.57 293.88 416.88 290.78 417.00 288.00
C 418.33 288.00 419.67 288.00 421.00 288.00
C 415.15 285.17 416.00 291.54 416.00 296.00 Z"/>
</g>
<g fill="None" fill-opacity="0.0" stroke="#CA6F6E" stroke-opacity="0.09" stroke-width="0.3"><path d="
M 430.00 289.00 
C 431.69 287.61 433.95 288.09 436.00 288.00
C 436.00 294.33 436.00 300.67 436.00 307.00
C 439.29 303.75 438.09 279.62 430.00 289.00 Z"/>
</g>
<g fill="None" fill-opacity="0.0" stroke="#B22E29" stroke-opacity="0.59" stroke-width="0.3"><path d="
M 404.00 291.00 
C 406.69 293.59 402.49 307.00 407.00 307.00
C 411.41 304.81 407.86 296.59 409.00 292.00
C 412.16 292.26 416.34 292.47 415.00 288.00
C 415.00 288.00 414.50 288.00 414.00 288.00
C 413.07 291.48 407.03 288.49 407.03 293.03 C 407.02 297.57 406.97 300.60 407.00 305.00
C 405.72 301.46 405.35 298.58 406.00 294.00 C 406.65 289.42 400.83 291.07 400.00 288.00
C 398.53 288.27 399.11 290.00 399.00 291.00
C 400.63 290.78 402.38 291.29 404.00 291.00 Z"/>
</g>
<g fill="None" fill-opacity="0.0" stroke="#C50D0E" stroke-opacity="0.95" stroke-width="0.3"><path d="
M 414.00 288.00 
C 410.85 288.00 402.65 286.47 400.00 288.00
C 400.83 291.07 406.65 289.42 406.00 294.00 C 405.35 298.58 405.72 301.46 407.00 305.00
C 406.97 300.60 407.02 297.57 407.03 293.03 C 407.03 288.49 413.07 291.48 414.00 288.00 Z"/>
</g>
<g fill="None" fill-opacity="0.0" stroke="#C42F28" stroke-opacity="0.70" stroke-width="0.3"><path d="
M 416.00 296.00 
C 416.00 296.00 416.00 296.50 416.00 297.00
C 417.97 299.67 415.31 304.51 417.00 307.00
C 417.92 307.84 419.11 307.81 420.00 307.00
C 421.55 304.72 418.84 299.54 420.00 297.00
C 421.92 297.85 422.78 300.05 423.00 302.00
C 422.50 311.03 432.78 305.29 431.00 299.00
C 432.41 299.94 431.31 311.63 436.00 307.00
C 436.00 300.67 436.00 294.33 436.00 288.00
C 433.95 288.09 431.69 287.61 430.00 289.00
C 428.87 292.35 427.73 296.16 426.00 299.00
C 424.90 295.09 424.60 289.74 421.00 288.00
C 419.67 288.00 418.33 288.00 417.00 288.00
C 416.88 290.78 417.57 293.88 416.00 296.00 Z"/>
</g>
<g fill="None" fill-opacity="0.0" stroke="#D46361" stroke-opacity="0.13" stroke-width="0.3"><path d="
M 404.00 292.00 
C 404.00 295.15 402.46 309.62 407.00 307.00
C 402.49 307.00 406.69 293.59 404.00 291.00
C 404.00 291.00 404.00 291.50 404.00 292.00 Z"/>
</g>
<g fill="None" fill-opacity="0.0" stroke="#8F1816" stroke-opacity="0.33" stroke-width="0.3"><path d="
M 166.00 306.00 
C 157.86 308.44 147.55 305.09 139.00 306.00 C 130.45 306.91 120.66 306.00 112.00 306.00
C 111.50 306.00 110.16 305.77 110.00 306.00
C 110.00 306.00 109.75 306.75 110.00 307.00
C 110.00 307.00 110.50 307.00 111.00 307.00
C 129.33 307.00 147.67 306.99 166.00 307.00
C 166.00 307.00 166.60 307.20 167.00 307.00
C 169.77 303.04 174.10 298.73 178.00 296.00
C 178.00 296.00 177.78 295.12 178.00 295.00
C 175.32 297.68 169.67 304.90 166.00 306.00 Z"/>
</g>
<g fill="None" fill-opacity="0.0" stroke="#FFB7B7" stroke-opacity="0.02" stroke-width="0.3"><path d="
M 167.00 307.00 
C 170.32 305.37 176.35 299.38 178.00 296.00
C 174.10 298.73 169.77 303.04 167.00 307.00 Z"/>
</g>
<g fill="None" fill-opacity="0.0" stroke="#EA7A77" stroke-opacity="0.16" stroke-width="0.3"><path d="
M 417.00 307.00 
C 415.31 304.51 417.97 299.67 416.00 297.00
C 416.00 299.71 415.01 305.19 417.00 307.00 Z"/>
</g>
<g fill="None" fill-opacity="0.0" stroke="#F19694" stroke-opacity="0.11" stroke-width="0.3"><path d="
M 420.00 307.00 
C 422.14 305.62 420.48 302.20 421.00 300.00
C 421.89 300.38 422.47 301.34 423.00 302.00
C 422.78 300.05 421.92 297.85 420.00 297.00
C 418.84 299.54 421.55 304.72 420.00 307.00 Z"/>
</g>
<g fill="None" fill-opacity="0.0" stroke="#BE0A0A" stroke-opacity="0.89" stroke-width="0.3"><path d="
M 296.00 306.00 
C 316.71 305.99 338.39 304.14 359.00 306.00
C 339.70 306.32 316.99 302.12 297.00 305.00
C 296.79 305.27 296.26 305.88 296.00 306.00 Z"/>
</g>
<g fill="None" fill-opacity="0.0" stroke="#911814" stroke-opacity="0.34" stroke-width="0.3"><path d="
M 295.00 307.00 
C 315.05 309.89 337.71 306.99 358.00 307.00
C 358.00 307.00 358.60 307.20 359.00 307.00
C 359.00 307.00 358.77 306.16 359.00 306.00
C 338.39 304.14 316.71 305.99 296.00 306.00
C 296.00 306.00 295.50 306.00 295.00 306.00
C 295.00 306.00 294.25 306.25 294.00 306.00
C 294.03 306.35 294.70 306.78 295.00 307.00 Z"/>
</g>
<g fill="None" fill-opacity="0.0" stroke="#FFFFFF" stroke-opacity="0.00" stroke-width="0.3"><path d="
M 92.00 307.00 
C 72.67 307.00 53.33 307.00 34.00 307.00
C 39.79 311.28 55.33 307.47 63.00 308.00 C 70.67 308.53 85.23 309.88 92.00 307.00 Z"/>
</g>
<g fill="None" fill-opacity="0.0" stroke="#FFFFFF" stroke-opacity="0.00" stroke-width="0.3"><path d="
M 166.00 307.00 
C 147.67 306.99 129.33 307.00 111.00 307.00
C 116.07 310.76 132.38 307.88 139.00 308.00 C 145.62 308.12 161.02 310.69 166.00 307.00 Z"/>
</g>
<g fill="None" fill-opacity="0.0" stroke="#FFFFFF" stroke-opacity="0.00" stroke-width="0.3"><path d="
M 358.00 307.00 
C 337.71 306.99 315.05 309.89 295.00 307.00
C 299.59 310.38 309.95 307.44 316.00 308.00 C 322.05 308.56 332.00 308.42 338.00 308.00 C 344.00 307.58 353.51 310.32 358.00 307.00 Z"/>
</g>
<g fill="#000000" fill-opacity="0.00" stroke="None">
<path d="
M 0.00 500.00 
L 500.00 500.00
L 500.00 0.00
L 0.00 0.00
L 0.00 500.00
M 389.00 197.00 
C 389.30 197.22 390.06 197.71 390.00 198.00
C 389.19 201.84 377.45 212.31 374.00 214.00
C 373.60 214.20 373.00 214.00 373.00 214.00
C 372.36 215.52 372.10 215.70 371.00 217.00
C 367.93 220.62 364.38 223.81 361.00 227.00
C 358.46 229.81 355.44 233.53 352.00 235.00
C 341.40 239.52 327.02 234.63 315.00 236.00 C 302.98 237.37 289.42 235.41 277.00 236.00 C 264.58 236.59 251.65 235.79 239.00 236.00 C 226.35 236.21 212.74 236.00 200.00 236.00
C 193.49 236.00 187.22 236.84 181.00 237.00
C 180.50 237.01 179.46 236.86 179.00 237.00
C 174.97 238.21 170.21 239.20 166.00 241.00
C 164.37 241.70 162.54 242.28 161.00 243.00
C 160.19 243.38 160.27 243.88 159.00 244.00
C 156.68 245.65 154.38 248.18 152.00 250.00
C 151.68 250.24 151.00 250.00 151.00 250.00
C 147.97 256.77 137.64 263.21 132.25 269.25 C 126.86 275.29 119.53 283.27 113.25 288.25 C 106.96 293.22 101.41 304.45 94.00 307.00
C 93.55 307.15 92.50 307.00 92.00 307.00
C 85.23 309.88 70.67 308.53 63.00 308.00 C 55.33 307.47 39.79 311.28 34.00 307.00
C 33.50 307.00 33.00 307.00 33.00 307.00
C 32.12 306.92 31.91 305.69 32.00 305.00
C 32.65 300.18 41.13 296.99 43.75 292.75 C 46.37 288.51 52.48 284.88 55.75 280.75 C 59.02 276.62 64.31 272.65 68.00 269.00
C 79.57 255.59 93.28 241.87 107.00 230.00
C 107.27 229.76 107.81 229.32 108.00 229.00
C 110.58 224.67 117.33 218.84 122.00 216.00
C 122.67 215.59 123.32 215.35 124.00 215.00
C 126.51 213.00 128.76 210.17 132.00 209.00
C 132.44 208.84 133.00 209.00 133.00 209.00
C 134.89 205.98 140.63 203.79 144.00 203.00
C 144.47 202.89 145.00 203.00 145.00 203.00
C 145.26 202.88 145.65 202.03 146.00 202.00
C 146.50 201.95 147.00 202.00 147.00 202.00
C 157.89 197.25 171.51 197.00 184.00 197.00
C 184.50 197.00 185.00 197.00 185.00 197.00
C 187.05 195.48 190.27 196.00 193.00 196.00
C 194.00 196.00 195.00 196.00 196.00 196.00
C 206.67 196.00 217.33 196.00 228.00 196.00
C 253.00 196.00 278.00 196.00 303.00 196.00
C 314.33 196.00 325.67 196.00 337.00 196.00
C 342.00 196.00 347.00 196.00 352.00 196.00
C 359.33 196.00 366.67 196.00 374.00 196.00
C 378.20 196.00 385.84 194.67 389.00 197.00
M 468.00 197.00 
C 470.13 199.05 463.09 204.71 461.00 206.00
C 460.68 206.20 460.23 206.72 460.00 207.00
C 454.66 213.39 446.78 219.22 441.00 225.00
C 439.73 226.61 438.69 228.37 437.00 230.00
C 428.69 237.99 419.90 247.36 411.25 255.25 C 402.59 263.14 395.46 273.15 385.25 281.25 C 375.03 289.35 370.32 301.46 359.00 307.00
C 358.60 307.20 358.00 307.00 358.00 307.00
C 353.51 310.32 344.00 307.58 338.00 308.00 C 332.00 308.42 322.05 308.56 316.00 308.00 C 309.95 307.44 299.59 310.38 295.00 307.00
C 294.70 306.78 294.03 306.35 294.00 306.00
C 293.95 305.50 294.00 305.00 294.00 305.00
C 299.31 294.15 313.14 287.28 320.75 277.75 C 328.36 268.22 339.17 259.62 347.75 250.75 C 356.34 241.88 365.47 231.88 374.75 223.75 C 384.04 215.62 391.56 203.35 402.00 197.00
C 402.66 196.60 403.24 196.16 404.00 196.00
C 415.48 193.56 430.23 196.00 442.00 196.00
C 446.33 196.00 450.67 196.00 455.00 196.00
C 457.64 196.00 460.37 195.81 463.00 196.00
C 464.48 196.11 466.91 195.68 468.00 197.00
M 336.00 244.00 
C 337.29 244.00 339.83 243.50 341.00 244.00
C 343.56 245.09 335.92 251.28 334.25 253.25 C 332.58 255.22 327.01 259.99 325.00 262.00
C 319.15 267.85 311.69 279.79 304.00 283.00
C 301.76 283.30 299.26 283.00 297.00 283.00
C 291.67 283.00 286.33 283.00 281.00 283.00
C 256.33 283.00 231.67 283.00 207.00 283.00
C 206.50 283.00 206.00 283.00 206.00 283.00
C 203.62 284.76 199.15 284.00 196.00 284.00
C 195.50 284.00 194.48 283.90 194.00 284.00
C 192.67 284.28 191.24 285.43 190.00 286.00
C 189.02 286.45 187.90 286.58 187.00 287.00
C 183.65 289.11 181.23 293.15 178.00 295.00
C 177.78 295.12 178.00 296.00 178.00 296.00
C 176.35 299.38 170.32 305.37 167.00 307.00
C 166.60 307.20 166.00 307.00 166.00 307.00
C 161.02 310.69 145.62 308.12 139.00 308.00 C 132.38 307.88 116.07 310.76 111.00 307.00
C 110.50 307.00 110.00 307.00 110.00 307.00
C 107.05 304.16 117.91 296.96 120.70 293.70 C 123.49 290.44 130.08 284.01 133.77 279.77 C 137.45 275.53 143.55 271.16 147.10 267.10 C 150.65 263.04 156.08 257.49 161.00 254.00
C 162.32 253.06 163.81 252.74 165.00 252.00
C 171.99 247.66 178.10 245.00 187.00 245.00
C 187.50 245.00 188.00 245.00 188.00 245.00
C 190.70 243.00 196.45 244.00 200.00 244.00
C 206.00 244.00 212.00 244.00 218.00 244.00
C 236.75 242.19 257.50 242.94 277.00 243.00 C 296.50 243.06 317.34 242.02 336.00 244.00
M 415.00 288.00 
C 416.34 292.47 412.16 292.26 409.00 292.00
C 407.86 296.59 411.41 304.81 407.00 307.00
C 402.46 309.62 404.00 295.15 404.00 292.00
C 402.14 292.50 399.90 291.62 398.00 292.00
C 397.05 283.62 410.65 287.21 415.00 288.00
M 421.00 288.00 
C 424.60 289.74 424.90 295.09 426.00 299.00
C 427.73 296.16 428.87 292.35 430.00 289.00
C 438.09 279.62 439.29 303.75 436.00 307.00
C 431.31 311.63 432.41 299.94 431.00 299.00
C 432.78 305.29 422.50 311.03 423.00 302.00
C 422.47 301.34 421.89 300.38 421.00 300.00
C 420.48 302.20 422.14 305.62 420.00 307.00
C 419.11 307.81 417.92 307.84 417.00 307.00
C 415.01 305.19 416.00 299.71 416.00 297.00
C 416.00 296.50 416.00 296.00 416.00 296.00
C 416.00 291.54 415.15 285.17 421.00 288.00 Z"/>
</g>
<g fill="#FFB7B6" fill-opacity="0.02" stroke="None">
<path d="
M 185.00 197.00 
C 187.99 197.00 190.68 196.51 193.00 196.00
C 190.27 196.00 187.05 195.48 185.00 197.00 Z"/>
</g>
<g fill="#B40C0A" fill-opacity="0.74" stroke="None">
<path d="
M 185.00 197.00 
C 185.00 197.00 184.50 197.00 184.00 197.00
C 250.37 203.42 319.78 194.27 387.00 198.00
C 376.99 209.50 364.96 219.55 355.00 231.00
C 360.63 225.15 367.31 219.69 373.00 214.00
C 378.12 208.88 383.18 201.12 389.00 197.00
C 384.00 197.00 379.00 197.00 374.00 197.00
C 366.67 197.00 359.33 197.00 352.00 197.00
C 347.00 197.00 342.00 197.00 337.00 197.00
C 325.67 197.00 314.33 197.00 303.00 197.00
C 278.00 197.00 253.00 197.00 228.00 197.00
C 217.60 197.00 205.54 198.09 196.00 196.00
C 195.00 196.00 194.00 196.00 193.00 196.00
C 190.68 196.51 187.99 197.00 185.00 197.00 Z"/>
</g>
<g fill="#FFBFBF" fill-opacity="0.02" stroke="None">
<path d="
M 228.00 197.00 
C 227.96 197.00 228.00 196.00 228.00 196.00
C 217.33 196.00 206.67 196.00 196.00 196.00
C 205.54 198.09 217.60 197.00 228.00 197.00 Z"/>
</g>
<g fill="#FF55AA" fill-opacity="0.01" stroke="None">
<path d="
M 228.00 197.00 
C 253.00 197.00 278.00 197.00 303.00 197.00
C 302.96 197.00 303.00 196.00 303.00 196.00
C 278.00 196.00 253.00 196.00 228.00 196.00
C 228.00 196.00 227.96 197.00 228.00 197.00 Z"/>
</g>
<g fill="#FE5555" fill-opacity="0.01" stroke="None">
<path d="
M 303.00 197.00 
C 314.33 197.00 325.67 197.00 337.00 197.00
C 336.96 197.00 337.00 196.00 337.00 196.00
C 325.67 196.00 314.33 196.00 303.00 196.00
C 303.00 196.00 302.96 197.00 303.00 197.00 Z"/>
</g>
<g fill="#FE55A4" fill-opacity="0.01" stroke="None">
<path d="
M 337.00 197.00 
C 342.00 197.00 347.00 197.00 352.00 197.00
C 351.96 197.00 352.00 196.00 352.00 196.00
C 347.00 196.00 342.00 196.00 337.00 196.00
C 337.00 196.00 336.96 197.00 337.00 197.00 Z"/>
</g>
<g fill="#FFCFB3" fill-opacity="0.01" stroke="None">
<path d="
M 352.00 197.00 
C 359.33 197.00 366.67 197.00 374.00 197.00
C 373.96 197.00 374.00 196.00 374.00 196.00
C 366.67 196.00 359.33 196.00 352.00 196.00
C 352.00 196.00 351.96 197.00 352.00 197.00 Z"/>
</g>
<g fill="#FF928F" fill-opacity="0.02" stroke="None">
<path d="
M 374.00 197.00 
C 379.00 197.00 384.00 197.00 389.00 197.00
C 385.84 194.67 378.20 196.00 374.00 196.00
C 374.00 196.00 373.96 197.00 374.00 197.00 Z"/>
</g>
<g fill="#B53E3E" fill-opacity="0.22" stroke="None">
<path d="
M 402.00 197.00 
C 383.63 214.14 367.38 234.89 348.25 251.25 C 329.12 267.61 314.50 290.66 294.00 305.00
C 294.00 305.00 293.95 305.50 294.00 306.00
C 294.25 306.25 295.00 306.00 295.00 306.00
C 304.55 292.34 319.34 282.04 330.75 269.75 C 342.16 257.46 354.90 244.66 367.25 233.25 C 379.60 221.84 390.32 206.57 404.00 197.00
C 404.23 196.84 404.00 196.00 404.00 196.00
C 403.24 196.16 402.66 196.60 402.00 197.00 Z"/>
</g>
<g fill="#FCADAD" fill-opacity="0.02" stroke="None">
<path d="
M 404.00 197.00 
C 416.43 198.12 429.51 197.00 442.00 197.00
C 441.96 197.00 442.00 196.00 442.00 196.00
C 430.23 196.00 415.48 193.56 404.00 196.00
C 404.00 196.00 404.23 196.84 404.00 197.00 Z"/>
</g>
<g fill="#FEAA55" fill-opacity="0.01" stroke="None">
<path d="
M 442.00 197.00 
C 446.33 197.00 450.67 197.00 455.00 197.00
C 454.96 197.00 455.00 196.00 455.00 196.00
C 450.67 196.00 446.33 196.00 442.00 196.00
C 442.00 196.00 441.96 197.00 442.00 197.00 Z"/>
</g>
<g fill="#FFB8B7" fill-opacity="0.02" stroke="None">
<path d="
M 455.00 197.00 
C 457.59 197.00 461.21 196.04 463.00 196.00
C 460.37 195.81 457.64 196.00 455.00 196.00
C 455.00 196.00 454.96 197.00 455.00 197.00 Z"/>
</g>
<g fill="#B01A15" fill-opacity="0.69" stroke="None">
<path d="
M 455.00 197.00 
C 450.67 197.00 446.33 197.00 442.00 197.00
C 429.51 197.00 416.43 198.12 404.00 197.00
C 390.32 206.57 379.60 221.84 367.25 233.25 C 354.90 244.66 342.16 257.46 330.75 269.75 C 319.34 282.04 304.55 292.34 295.00 306.00
C 295.50 306.00 296.00 306.00 296.00 306.00
C 296.26 305.88 296.79 305.27 297.00 305.00
C 304.94 294.80 315.19 286.60 324.25 277.25 C 333.30 267.90 342.06 258.69 351.75 249.75 C 361.44 240.82 368.57 230.62 379.25 222.25 C 389.92 213.88 394.74 198.69 410.00 198.00 C 425.26 197.31 449.89 198.52 466.00 198.00
C 453.66 211.83 439.29 224.22 427.00 238.00
C 430.05 234.95 433.85 232.34 437.00 230.00
C 438.69 228.37 439.73 226.61 441.00 225.00
C 445.30 219.55 452.76 210.05 459.00 207.00
C 461.98 204.02 464.52 200.43 468.00 198.00
C 468.20 197.60 468.00 197.00 468.00 197.00
C 466.91 195.68 464.48 196.11 463.00 196.00
C 461.21 196.04 457.59 197.00 455.00 197.00 Z"/>
</g>
<g fill="#E00603" fill-opacity="0.99" stroke="None">
<path d="
M 147.00 202.00 
C 148.00 202.03 149.73 201.58 150.00 203.00
C 144.01 203.14 137.90 209.11 133.00 209.00
C 133.00 209.00 132.44 208.84 132.00 209.00
C 131.02 210.32 130.27 211.05 129.00 212.00
C 124.29 216.62 118.69 220.31 114.00 225.00
C 100.83 238.17 86.83 251.45 74.25 265.25 C 61.66 279.04 44.63 290.79 34.00 306.00
C 48.50 305.99 65.78 304.35 80.00 306.00 C 94.22 307.65 100.49 297.83 109.25 289.25 C 118.01 280.67 123.64 273.81 132.25 266.25 C 140.86 258.69 146.87 248.62 157.00 244.00
C 158.46 243.33 158.33 244.06 159.00 244.00
C 160.27 243.88 160.19 243.38 161.00 243.00
C 161.63 241.85 161.08 242.30 163.23 240.23 C 165.39 238.16 167.40 240.94 166.00 241.00
C 170.21 239.20 174.97 238.21 179.00 237.00
C 178.00 236.97 176.27 237.42 176.00 236.00
C 178.79 234.99 181.89 234.82 185.00 235.00
C 185.99 235.03 187.00 235.00 188.00 235.00
C 200.37 232.36 213.51 233.20 227.00 233.00 C 240.49 232.80 255.51 233.72 269.00 233.00 C 282.49 232.28 296.75 234.78 310.00 233.00 C 323.25 231.22 339.36 236.91 352.00 233.00
C 352.90 232.55 354.31 231.64 355.00 231.00
C 364.96 219.55 376.99 209.50 387.00 198.00
C 319.78 194.27 250.37 203.42 184.00 197.00
C 171.51 197.00 157.89 197.25 147.00 202.00 Z"/>
</g>
<g fill="#9B1815" fill-opacity="0.35" stroke="None">
<path d="
M 373.00 214.00 
C 373.00 214.00 373.60 214.20 374.00 214.00
C 378.26 207.91 385.86 203.84 390.00 198.00
C 390.06 197.71 389.30 197.22 389.00 197.00
C 383.18 201.12 378.12 208.88 373.00 214.00 Z"/>
</g>
<g fill="#FFFEFD" fill-opacity="0.01" stroke="None">
<path d="
M 294.00 305.00 
C 314.50 290.66 329.12 267.61 348.25 251.25 C 367.38 234.89 383.63 214.14 402.00 197.00
C 391.56 203.35 384.04 215.62 374.75 223.75 C 365.47 231.88 356.34 241.88 347.75 250.75 C 339.17 259.62 328.36 268.22 320.75 277.75 C 313.14 287.28 299.31 294.15 294.00 305.00 Z"/>
</g>
<g fill="#FFE5E4" fill-opacity="0.01" stroke="None">
<path d="
M 468.00 198.00 
C 466.54 200.98 463.00 203.44 461.00 206.00
C 463.09 204.71 470.13 199.05 468.00 197.00
C 468.00 197.00 468.20 197.60 468.00 198.00 Z"/>
</g>
<g fill="#F9ABAA" fill-opacity="0.04" stroke="None">
<path d="
M 374.00 214.00 
C 377.45 212.31 389.19 201.84 390.00 198.00
C 385.86 203.84 378.26 207.91 374.00 214.00 Z"/>
</g>
<g fill="#DF0401" fill-opacity="1.00" stroke="None">
<path d="
M 297.00 305.00 
C 316.99 302.12 339.70 306.32 359.00 306.00
C 361.76 304.07 363.89 301.47 366.00 299.00
C 384.52 277.32 406.91 258.09 427.00 238.00
C 439.29 224.22 453.66 211.83 466.00 198.00
C 449.89 198.52 425.26 197.31 410.00 198.00 C 394.74 198.69 389.92 213.88 379.25 222.25 C 368.57 230.62 361.44 240.82 351.75 249.75 C 342.06 258.69 333.30 267.90 324.25 277.25 C 315.19 286.60 304.94 294.80 297.00 305.00 Z"/>
</g>
<g fill="#A22C2B" fill-opacity="0.20" stroke="None">
<path d="
M 459.00 207.00 
C 459.40 206.80 460.00 207.00 460.00 207.00
C 460.23 206.72 460.68 206.20 461.00 206.00
C 463.00 203.44 466.54 200.98 468.00 198.00
C 464.52 200.43 461.98 204.02 459.00 207.00 Z"/>
</g>
<g fill="#FFFFFF" fill-opacity="0.01" stroke="None">
<path d="
M 145.00 203.00 
C 145.35 202.97 145.74 202.12 146.00 202.00
C 145.65 202.03 145.26 202.88 145.00 203.00 Z"/>
</g>
<g fill="#AE2826" fill-opacity="0.45" stroke="None">
<path d="
M 145.00 203.00 
C 145.00 203.00 144.47 202.89 144.00 203.00
C 140.84 205.54 136.67 206.99 133.00 209.00
C 137.90 209.11 144.01 203.14 150.00 203.00
C 149.73 201.58 148.00 202.03 147.00 202.00
C 147.00 202.00 146.50 201.95 146.00 202.00
C 145.74 202.12 145.35 202.97 145.00 203.00 Z"/>
</g>
<g fill="#F6B9BB" fill-opacity="0.05" stroke="None">
<path d="
M 133.00 209.00 
C 136.67 206.99 140.84 205.54 144.00 203.00
C 140.63 203.79 134.89 205.98 133.00 209.00 Z"/>
</g>
<g fill="#E79F9B" fill-opacity="0.10" stroke="None">
<path d="
M 441.00 225.00 
C 446.78 219.22 454.66 213.39 460.00 207.00
C 460.00 207.00 459.40 206.80 459.00 207.00
C 452.76 210.05 445.30 219.55 441.00 225.00 Z"/>
</g>
<g fill="#EBA8A6" fill-opacity="0.07" stroke="None">
<path d="
M 124.00 215.00 
C 125.76 214.10 127.43 213.17 129.00 212.00
C 130.27 211.05 131.02 210.32 132.00 209.00
C 128.76 210.17 126.51 213.00 124.00 215.00 Z"/>
</g>
<g fill="#AC2524" fill-opacity="0.49" stroke="None">
<path d="
M 124.00 215.00 
C 123.32 215.35 122.67 215.59 122.00 216.00
C 119.20 218.62 116.83 222.53 114.00 225.00
C 118.69 220.31 124.29 216.62 129.00 212.00
C 127.43 213.17 125.76 214.10 124.00 215.00 Z"/>
</g>
<g fill="#D57974" fill-opacity="0.14" stroke="None">
<path d="
M 355.00 231.00 
C 354.25 231.78 352.86 234.65 352.00 235.00
C 355.44 233.53 358.46 229.81 361.00 227.00
C 364.16 223.51 367.69 220.22 371.00 217.00
C 372.10 215.70 372.36 215.52 373.00 214.00
C 367.31 219.69 360.63 225.15 355.00 231.00 Z"/>
</g>
<g fill="#F6BFBC" fill-opacity="0.06" stroke="None">
<path d="
M 108.00 229.00 
C 109.82 227.39 112.20 226.57 114.00 225.00
C 116.83 222.53 119.20 218.62 122.00 216.00
C 117.33 218.84 110.58 224.67 108.00 229.00 Z"/>
</g>
<g fill="#FFFFFF" fill-opacity="0.01" stroke="None">
<path d="
M 361.00 227.00 
C 364.38 223.81 367.93 220.62 371.00 217.00
C 367.69 220.22 364.16 223.51 361.00 227.00 Z"/>
</g>
<g fill="#AE0D0B" fill-opacity="0.72" stroke="None">
<path d="
M 108.00 229.00 
C 107.81 229.32 107.27 229.76 107.00 230.00
C 102.22 240.18 89.69 246.68 82.75 255.75 C 75.82 264.82 64.46 271.58 57.75 280.75 C 51.04 289.93 37.94 295.89 33.00 306.00
C 33.25 305.75 34.00 306.00 34.00 306.00
C 44.63 290.79 61.66 279.04 74.25 265.25 C 86.83 251.45 100.83 238.17 114.00 225.00
C 112.20 226.57 109.82 227.39 108.00 229.00 Z"/>
</g>
<g fill="#C5645E" fill-opacity="0.17" stroke="None">
<path d="
M 68.00 269.00 
C 64.48 273.08 59.76 277.22 56.25 281.25 C 52.74 285.28 47.01 288.94 44.25 293.25 C 41.48 297.55 33.47 300.67 32.00 305.00
C 31.91 305.69 32.12 306.92 33.00 307.00
C 32.75 306.75 33.00 306.00 33.00 306.00
C 37.94 295.89 51.04 289.93 57.75 280.75 C 64.46 271.58 75.82 264.82 82.75 255.75 C 89.69 246.68 102.22 240.18 107.00 230.00
C 93.28 241.87 79.57 255.59 68.00 269.00 Z"/>
</g>
<g fill="#E08F8C" fill-opacity="0.08" stroke="None">
<path d="
M 427.00 238.00 
C 406.75 258.25 386.20 278.80 366.00 299.00
C 363.89 301.47 361.76 304.07 359.00 306.00
C 358.77 306.16 359.00 307.00 359.00 307.00
C 370.32 301.46 375.03 289.35 385.25 281.25 C 395.46 273.15 402.59 263.14 411.25 255.25 C 419.90 247.36 428.69 237.99 437.00 230.00
C 433.85 232.34 430.05 234.95 427.00 238.00 Z"/>
</g>
<g fill="#901413" fill-opacity="0.45" stroke="None">
<path d="
M 352.00 233.00 
C 341.55 238.21 326.21 232.38 314.00 234.00 C 301.79 235.62 286.67 233.32 274.00 234.00 C 261.33 234.68 247.82 233.86 235.00 234.00 C 222.18 234.14 208.07 233.83 196.00 235.00
C 197.33 235.00 198.67 235.00 200.00 235.00
C 209.99 235.00 220.01 235.12 230.00 235.00 C 239.99 234.88 250.01 235.33 260.00 235.00 C 269.99 234.67 281.14 235.73 291.00 235.00 C 300.86 234.27 311.50 236.67 321.00 235.00 C 330.50 233.33 343.25 238.59 352.00 235.00
C 352.86 234.65 354.25 231.78 355.00 231.00
C 354.31 231.64 352.90 232.55 352.00 233.00 Z"/>
</g>
<g fill="#BC0905" fill-opacity="0.95" stroke="None">
<path d="
M 188.00 235.00 
C 190.67 235.00 193.33 235.00 196.00 235.00
C 208.07 233.83 222.18 234.14 235.00 234.00 C 247.82 233.86 261.33 234.68 274.00 234.00 C 286.67 233.32 301.79 235.62 314.00 234.00 C 326.21 232.38 341.55 238.21 352.00 233.00
C 339.36 236.91 323.25 231.22 310.00 233.00 C 296.75 234.78 282.49 232.28 269.00 233.00 C 255.51 233.72 240.49 232.80 227.00 233.00 C 213.51 233.20 200.37 232.36 188.00 235.00 Z"/>
</g>
<g fill="#A31917" fill-opacity="0.51" stroke="None">
<path d="
M 179.00 237.00 
C 179.46 236.86 180.50 237.01 181.00 237.00
C 181.84 236.78 184.21 235.14 185.00 235.00
C 181.89 234.82 178.79 234.99 176.00 236.00
C 176.27 237.42 178.00 236.97 179.00 237.00 Z"/>
</g>
<g fill="#E67A7A" fill-opacity="0.07" stroke="None">
<path d="
M 181.00 237.00 
C 187.22 236.84 193.49 236.00 200.00 236.00
C 199.96 236.00 200.00 235.00 200.00 235.00
C 198.67 235.00 197.33 235.00 196.00 235.00
C 193.33 235.00 190.67 235.00 188.00 235.00
C 187.00 235.00 185.99 235.03 185.00 235.00
C 184.21 235.14 181.84 236.78 181.00 237.00 Z"/>
</g>
<g fill="#FFFFFF" fill-opacity="0.01" stroke="None">
<path d="
M 200.00 236.00 
C 212.74 236.00 226.35 236.21 239.00 236.00 C 251.65 235.79 264.58 236.59 277.00 236.00 C 289.42 235.41 302.98 237.37 315.00 236.00 C 327.02 234.63 341.40 239.52 352.00 235.00
C 343.25 238.59 330.50 233.33 321.00 235.00 C 311.50 236.67 300.86 234.27 291.00 235.00 C 281.14 235.73 269.99 234.67 260.00 235.00 C 250.01 235.33 239.99 234.88 230.00 235.00 C 220.01 235.12 209.99 235.00 200.00 235.00
C 200.00 235.00 199.96 236.00 200.00 236.00 Z"/>
</g>
<g fill="#A00D0E" fill-opacity="0.54" stroke="None">
<path d="
M 366.00 299.00 
C 386.20 278.80 406.75 258.25 427.00 238.00
C 406.91 258.09 384.52 277.32 366.00 299.00 Z"/>
</g>
<g fill="#BB4A44" fill-opacity="0.38" stroke="None">
<path d="
M 161.00 243.00 
C 162.54 242.28 164.37 241.70 166.00 241.00
C 167.40 240.94 165.39 238.16 163.23 240.23 C 161.08 242.30 161.63 241.85 161.00 243.00 Z"/>
</g>
<g fill="#DA7B76" fill-opacity="0.18" stroke="None">
<path d="
M 157.00 244.00 
C 155.32 245.14 153.15 248.35 152.00 250.00
C 154.38 248.18 156.68 245.65 159.00 244.00
C 158.33 244.06 158.46 243.33 157.00 244.00 Z"/>
</g>
<g fill="#FFFFFF" fill-opacity="0.00" stroke="None">
<path d="
M 218.00 244.00 
C 257.33 244.00 296.67 244.00 336.00 244.00
C 317.34 242.02 296.50 243.06 277.00 243.00 C 257.50 242.94 236.75 242.19 218.00 244.00 Z"/>
</g>
<g fill="#A51010" fill-opacity="0.53" stroke="None">
<path d="
M 34.00 306.00 
C 34.00 306.00 33.25 305.75 33.00 306.00
C 33.00 306.00 32.75 306.75 33.00 307.00
C 33.00 307.00 33.50 307.00 34.00 307.00
C 53.33 307.00 72.67 307.00 92.00 307.00
C 92.50 307.00 93.55 307.15 94.00 307.00
C 104.20 299.11 111.67 285.75 122.25 278.25 C 132.83 270.74 139.46 255.65 151.00 250.00
C 151.00 250.00 151.68 250.24 152.00 250.00
C 153.15 248.35 155.32 245.14 157.00 244.00
C 146.87 248.62 140.86 258.69 132.25 266.25 C 123.64 273.81 118.01 280.67 109.25 289.25 C 100.49 297.83 94.22 307.65 80.00 306.00 C 65.78 304.35 48.50 305.99 34.00 306.00 Z"/>
</g>
<g fill="#FC9D98" fill-opacity="0.10" stroke="None">
<path d="
M 188.00 245.00 
C 192.00 245.00 196.00 245.00 200.00 245.00
C 199.85 244.95 200.00 244.00 200.00 244.00
C 196.45 244.00 190.70 243.00 188.00 245.00 Z"/>
</g>
<g fill="#A6130F" fill-opacity="0.35" stroke="None">
<path d="
M 200.00 245.00 
C 201.67 245.00 203.33 245.00 205.00 245.00
C 250.00 245.00 295.00 245.00 340.00 245.00
C 339.70 246.25 338.17 246.71 338.00 248.00
C 339.10 246.83 341.55 246.20 341.00 244.00
C 339.83 243.50 337.29 244.00 336.00 244.00
C 296.67 244.00 257.33 244.00 218.00 244.00
C 212.00 244.00 206.00 244.00 200.00 244.00
C 200.00 244.00 199.85 244.95 200.00 245.00 Z"/>
</g>
<g fill="#E79696" fill-opacity="0.04" stroke="None">
<path d="
M 338.00 248.00 
C 334.54 251.71 330.35 255.35 327.00 259.00
C 326.24 259.83 325.72 261.22 325.00 262.00
C 327.01 259.99 332.58 255.22 334.25 253.25 C 335.92 251.28 343.56 245.09 341.00 244.00
C 341.55 246.20 339.10 246.83 338.00 248.00 Z"/>
</g>
<g fill="#DF0603" fill-opacity="0.99" stroke="None">
<path d="
M 165.00 252.00 
C 164.12 252.91 160.25 256.11 158.00 258.00
C 141.87 271.51 124.89 289.96 112.00 306.00
C 120.66 306.00 130.45 306.91 139.00 306.00 C 147.55 305.09 157.86 308.44 166.00 306.00
C 169.66 304.65 172.09 297.99 175.75 295.75 C 179.42 293.51 182.25 288.25 186.00 286.00
C 188.88 284.27 191.33 285.81 190.00 286.00
C 191.24 285.43 192.67 284.28 194.00 284.00
C 207.12 276.45 228.61 282.70 244.00 281.00 C 259.39 279.30 282.37 282.33 297.00 281.00 C 311.63 279.67 316.79 265.61 327.00 259.00
C 330.35 255.35 334.54 251.71 338.00 248.00
C 338.17 246.71 339.70 246.25 340.00 245.00
C 295.00 245.00 250.00 245.00 205.00 245.00
C 199.33 245.55 192.60 245.54 187.00 245.00
C 178.10 245.00 171.99 247.66 165.00 252.00
M 182.00 246.00 
C 177.25 250.29 174.73 245.87 182.00 246.00 Z"/>
</g>
<g fill="#B20E0C" fill-opacity="0.71" stroke="None">
<path d="
M 205.00 245.00 
C 203.33 245.00 201.67 245.00 200.00 245.00
C 196.00 245.00 192.00 245.00 188.00 245.00
C 188.00 245.00 187.50 245.00 187.00 245.00
C 192.60 245.54 199.33 245.55 205.00 245.00 Z"/>
</g>
<g fill="#AE1213" fill-opacity="0.57" stroke="None">
<path d="
M 182.00 246.00 
C 174.73 245.87 177.25 250.29 182.00 246.00 Z"/>
</g>
<g fill="#E97C80" fill-opacity="0.04" stroke="None">
<path d="
M 94.00 307.00 
C 101.41 304.45 106.96 293.22 113.25 288.25 C 119.53 283.27 126.86 275.29 132.25 269.25 C 137.64 263.21 147.97 256.77 151.00 250.00
C 139.46 255.65 132.83 270.74 122.25 278.25 C 111.67 285.75 104.20 299.11 94.00 307.00 Z"/>
</g>
<g fill="#BB3833" fill-opacity="0.41" stroke="None">
<path d="
M 161.00 254.00 
C 159.85 255.00 159.01 256.94 158.00 258.00
C 160.25 256.11 164.12 252.91 165.00 252.00
C 163.81 252.74 162.32 253.06 161.00 254.00 Z"/>
</g>
<g fill="#E59D9B" fill-opacity="0.09" stroke="None">
<path d="
M 110.00 307.00 
C 109.75 306.75 110.00 306.00 110.00 306.00
C 114.74 296.31 127.12 290.35 133.75 281.75 C 140.38 273.16 150.54 265.76 158.00 258.00
C 159.01 256.94 159.85 255.00 161.00 254.00
C 156.08 257.49 150.65 263.04 147.10 267.10 C 143.55 271.16 137.45 275.53 133.77 279.77 C 130.08 284.01 123.49 290.44 120.70 293.70 C 117.91 296.96 107.05 304.16 110.00 307.00 Z"/>
</g>
<g fill="#A90C0F" fill-opacity="0.62" stroke="None">
<path d="
M 110.00 306.00 
C 110.16 305.77 111.50 306.00 112.00 306.00
C 124.89 289.96 141.87 271.51 158.00 258.00
C 150.54 265.76 140.38 273.16 133.75 281.75 C 127.12 290.35 114.74 296.31 110.00 306.00 Z"/>
</g>
<g fill="#B30D0C" fill-opacity="0.75" stroke="None">
<path d="
M 194.00 284.00 
C 194.48 283.90 195.50 284.00 196.00 284.00
C 198.91 282.76 202.46 283.00 206.00 283.00
C 206.00 283.00 206.50 283.00 207.00 283.00
C 212.70 278.78 223.61 283.32 231.00 282.00 C 238.39 280.68 248.17 282.77 256.00 282.00 C 263.83 281.23 273.86 282.31 281.00 283.00
C 286.33 283.00 291.67 283.00 297.00 283.00
C 298.83 282.82 301.43 281.53 304.00 282.00
C 312.95 278.36 317.71 262.85 327.00 259.00
C 316.79 265.61 311.63 279.67 297.00 281.00 C 282.37 282.33 259.39 279.30 244.00 281.00 C 228.61 282.70 207.12 276.45 194.00 284.00 Z"/>
</g>
<g fill="#AB2726" fill-opacity="0.33" stroke="None">
<path d="
M 304.00 282.00 
C 311.31 276.89 319.03 268.51 325.00 262.00
C 325.72 261.22 326.24 259.83 327.00 259.00
C 317.71 262.85 312.95 278.36 304.00 282.00 Z"/>
</g>
<g fill="#FFECE8" fill-opacity="0.02" stroke="None">
<path d="
M 304.00 282.00 
C 303.77 282.16 304.00 283.00 304.00 283.00
C 311.69 279.79 319.15 267.85 325.00 262.00
C 319.03 268.51 311.31 276.89 304.00 282.00 Z"/>
</g>
<g fill="#FFE5E5" fill-opacity="0.01" stroke="None">
<path d="
M 32.00 305.00 
C 33.47 300.67 41.48 297.55 44.25 293.25 C 47.01 288.94 52.74 285.28 56.25 281.25 C 59.76 277.22 64.48 273.08 68.00 269.00
C 64.31 272.65 59.02 276.62 55.75 280.75 C 52.48 284.88 46.37 288.51 43.75 292.75 C 41.13 296.99 32.65 300.18 32.00 305.00 Z"/>
</g>
<g fill="#CA6863" fill-opacity="0.17" stroke="None">
<path d="
M 207.00 283.00 
C 231.67 283.00 256.33 283.00 281.00 283.00
C 273.86 282.31 263.83 281.23 256.00 282.00 C 248.17 282.77 238.39 280.68 231.00 282.00 C 223.61 283.32 212.70 278.78 207.00 283.00 Z"/>
</g>
<g fill="#CF6860" fill-opacity="0.16" stroke="None">
<path d="
M 297.00 283.00 
C 299.26 283.00 301.76 283.30 304.00 283.00
C 304.00 283.00 303.77 282.16 304.00 282.00
C 301.43 281.53 298.83 282.82 297.00 283.00 Z"/>
</g>
<g fill="#FFCBCA" fill-opacity="0.03" stroke="None">
<path d="
M 196.00 284.00 
C 199.15 284.00 203.62 284.76 206.00 283.00
C 202.46 283.00 198.91 282.76 196.00 284.00 Z"/>
</g>
<g fill="#B4413E" fill-opacity="0.35" stroke="None">
<path d="
M 186.00 286.00 
C 185.18 286.71 184.69 288.25 184.00 289.00
C 184.94 288.29 185.95 287.49 187.00 287.00
C 187.90 286.58 189.02 286.45 190.00 286.00
C 191.33 285.81 188.88 284.27 186.00 286.00 Z"/>
</g>
<g fill="#A90709" fill-opacity="0.77" stroke="None">
<path d="
M 166.00 306.00 
C 169.67 304.90 175.32 297.68 178.00 295.00
C 180.03 292.97 181.71 290.74 184.00 289.00
C 184.69 288.25 185.18 286.71 186.00 286.00
C 182.25 288.25 179.42 293.51 175.75 295.75 C 172.09 297.99 169.66 304.65 166.00 306.00 Z"/>
</g>
<g fill="#E8A4A1" fill-opacity="0.09" stroke="None">
<path d="
M 184.00 289.00 
C 181.71 290.74 180.03 292.97 178.00 295.00
C 181.23 293.15 183.65 289.11 187.00 287.00
C 185.95 287.49 184.94 288.29 184.00 289.00 Z"/>
</g>
<g fill="#FAA3A6" fill-opacity="0.04" stroke="None">
<path d="
M 404.00 292.00 
C 404.00 291.50 404.00 291.00 404.00 291.00
C 402.38 291.29 400.63 290.78 399.00 291.00
C 399.11 290.00 398.53 288.27 400.00 288.00
C 402.65 286.47 410.85 288.00 414.00 288.00
C 414.50 288.00 415.00 288.00 415.00 288.00
C 410.65 287.21 397.05 283.62 398.00 292.00
C 399.90 291.62 402.14 292.50 404.00 292.00 Z"/>
</g>
<g fill="#E48686" fill-opacity="0.11" stroke="None">
<path d="
M 416.00 296.00 
C 417.57 293.88 416.88 290.78 417.00 288.00
C 418.33 288.00 419.67 288.00 421.00 288.00
C 415.15 285.17 416.00 291.54 416.00 296.00 Z"/>
</g>
<g fill="#CA6F6E" fill-opacity="0.09" stroke="None">
<path d="
M 430.00 289.00 
C 431.69 287.61 433.95 288.09 436.00 288.00
C 436.00 294.33 436.00 300.67 436.00 307.00
C 439.29 303.75 438.09 279.62 430.00 289.00 Z"/>
</g>
<g fill="#B22E29" fill-opacity="0.59" stroke="None">
<path d="
M 404.00 291.00 
C 406.69 293.59 402.49 307.00 407.00 307.00
C 411.41 304.81 407.86 296.59 409.00 292.00
C 412.16 292.26 416.34 292.47 415.00 288.00
C 415.00 288.00 414.50 288.00 414.00 288.00
C 413.07 291.48 407.03 288.49 407.03 293.03 C 407.02 297.57 406.97 300.60 407.00 305.00
C 405.72 301.46 405.35 298.58 406.00 294.00 C 406.65 289.42 400.83 291.07 400.00 288.00
C 398.53 288.27 399.11 290.00 399.00 291.00
C 400.63 290.78 402.38 291.29 404.00 291.00 Z"/>
</g>
<g fill="#C50D0E" fill-opacity="0.95" stroke="None">
<path d="
M 414.00 288.00 
C 410.85 288.00 402.65 286.47 400.00 288.00
C 400.83 291.07 406.65 289.42 406.00 294.00 C 405.35 298.58 405.72 301.46 407.00 305.00
C 406.97 300.60 407.02 297.57 407.03 293.03 C 407.03 288.49 413.07 291.48 414.00 288.00 Z"/>
</g>
<g fill="#C42F28" fill-opacity="0.70" stroke="None">
<path d="
M 416.00 296.00 
C 416.00 296.00 416.00 296.50 416.00 297.00
C 417.97 299.67 415.31 304.51 417.00 307.00
C 417.92 307.84 419.11 307.81 420.00 307.00
C 421.55 304.72 418.84 299.54 420.00 297.00
C 421.92 297.85 422.78 300.05 423.00 302.00
C 422.50 311.03 432.78 305.29 431.00 299.00
C 432.41 299.94 431.31 311.63 436.00 307.00
C 436.00 300.67 436.00 294.33 436.00 288.00
C 433.95 288.09 431.69 287.61 430.00 289.00
C 428.87 292.35 427.73 296.16 426.00 299.00
C 424.90 295.09 424.60 289.74 421.00 288.00
C 419.67 288.00 418.33 288.00 417.00 288.00
C 416.88 290.78 417.57 293.88 416.00 296.00 Z"/>
</g>
<g fill="#D46361" fill-opacity="0.13" stroke="None">
<path d="
M 404.00 292.00 
C 404.00 295.15 402.46 309.62 407.00 307.00
C 402.49 307.00 406.69 293.59 404.00 291.00
C 404.00 291.00 404.00 291.50 404.00 292.00 Z"/>
</g>
<g fill="#8F1816" fill-opacity="0.33" stroke="None">
<path d="
M 166.00 306.00 
C 157.86 308.44 147.55 305.09 139.00 306.00 C 130.45 306.91 120.66 306.00 112.00 306.00
C 111.50 306.00 110.16 305.77 110.00 306.00
C 110.00 306.00 109.75 306.75 110.00 307.00
C 110.00 307.00 110.50 307.00 111.00 307.00
C 129.33 307.00 147.67 306.99 166.00 307.00
C 166.00 307.00 166.60 307.20 167.00 307.00
C 169.77 303.04 174.10 298.73 178.00 296.00
C 178.00 296.00 177.78 295.12 178.00 295.00
C 175.32 297.68 169.67 304.90 166.00 306.00 Z"/>
</g>
<g fill="#FFB7B7" fill-opacity="0.02" stroke="None">
<path d="
M 167.00 307.00 
C 170.32 305.37 176.35 299.38 178.00 296.00
C 174.10 298.73 169.77 303.04 167.00 307.00 Z"/>
</g>
<g fill="#EA7A77" fill-opacity="0.16" stroke="None">
<path d="
M 417.00 307.00 
C 415.31 304.51 417.97 299.67 416.00 297.00
C 416.00 299.71 415.01 305.19 417.00 307.00 Z"/>
</g>
<g fill="#F19694" fill-opacity="0.11" stroke="None">
<path d="
M 420.00 307.00 
C 422.14 305.62 420.48 302.20 421.00 300.00
C 421.89 300.38 422.47 301.34 423.00 302.00
C 422.78 300.05 421.92 297.85 420.00 297.00
C 418.84 299.54 421.55 304.72 420.00 307.00 Z"/>
</g>
<g fill="#BE0A0A" fill-opacity="0.89" stroke="None">
<path d="
M 296.00 306.00 
C 316.71 305.99 338.39 304.14 359.00 306.00
C 339.70 306.32 316.99 302.12 297.00 305.00
C 296.79 305.27 296.26 305.88 296.00 306.00 Z"/>
</g>
<g fill="#911814" fill-opacity="0.34" stroke="None">
<path d="
M 295.00 307.00 
C 315.05 309.89 337.71 306.99 358.00 307.00
C 358.00 307.00 358.60 307.20 359.00 307.00
C 359.00 307.00 358.77 306.16 359.00 306.00
C 338.39 304.14 316.71 305.99 296.00 306.00
C 296.00 306.00 295.50 306.00 295.00 306.00
C 295.00 306.00 294.25 306.25 294.00 306.00
C 294.03 306.35 294.70 306.78 295.00 307.00 Z"/>
</g>
<g fill="#FFFFFF" fill-opacity="0.00" stroke="None">
<path d="
M 92.00 307.00 
C 72.67 307.00 53.33 307.00 34.00 307.00
C 39.79 311.28 55.33 307.47 63.00 308.00 C 70.67 308.53 85.23 309.88 92.00 307.00 Z"/>
</g>
<g fill="#FFFFFF" fill-opacity="0.00" stroke="None">
<path d="
M 166.00 307.00 
C 147.67 306.99 129.33 307.00 111.00 307.00
C 116.07 310.76 132.38 307.88 139.00 308.00 C 145.62 308.12 161.02 310.69 166.00 307.00 Z"/>
</g>
<g fill="#FFFFFF" fill-opacity="0.00" stroke="None">
<path d="
M 358.00 307.00 
C 337.71 306.99 315.05 309.89 295.00 307.00
C 299.59 310.38 309.95 307.44 316.00 308.00 C 322.05 308.56 332.00 308.42 338.00 308.00 C 344.00 307.58 353.51 310.32 358.00 307.00 Z"/>
</g>
</svg>